<svg width="244" height="34" viewBox="0 0 244 34" fill="none" xmlns="http://www.w3.org/2000/svg">
<path d="M11.926 0.799998C17.2927 0.799998 20.85 1.56666 22.598 3.1C24.1927 4.48 24.99 6.61133 24.99 9.494C24.99 13.9713 22.6593 17.0227 17.998 18.648L24.622 28.63L28.578 29.044C28.578 30.3627 28.2253 31.6813 27.52 33H20.85L11.834 19.246H10.362L10.224 28.63L13.582 28.998C13.582 30.2553 13.2293 31.5893 12.524 33H1.162L0.748 30.47C2.588 29.734 3.876 29.2893 4.612 29.136C4.55067 25.364 4.474 20.81 4.382 15.474C4.29 10.138 4.22867 6.56533 4.198 4.756L0.38 3.606C0.410667 2.90066 0.548667 1.96533 0.794 0.799998H11.926ZM15.56 5.722C14.6093 5.50733 13.3367 5.4 11.742 5.4H10.454C10.3927 9.632 10.362 12.806 10.362 14.922L12.616 14.876C14.4253 14.8453 15.8513 14.4773 16.894 13.772C17.9673 13.036 18.504 11.6253 18.504 9.54C18.504 7.45467 17.5227 6.182 15.56 5.722ZM40.6415 5.4C40.6415 8.896 40.6108 11.9013 40.5495 14.416H45.2415L45.7015 11.242C47.2655 11.242 48.7835 11.6253 50.2555 12.392V21.592L47.2195 21.73C46.4835 20.626 46.0542 19.66 45.9315 18.832H40.5035C40.4422 23.1253 40.4115 26.3607 40.4115 28.538H48.2775L49.2895 24.536C51.1908 24.536 52.6322 24.628 53.6135 24.812C54.0735 26.56 54.3035 28.1547 54.3035 29.596C54.3035 31.0067 54.2575 32.1413 54.1655 33H31.3495L30.9355 30.47C32.9288 29.7033 34.2168 29.2587 34.7995 29.136C34.7688 27.3267 34.7382 24.7813 34.7075 21.5C34.5848 14.14 34.4775 8.574 34.3855 4.802L30.5675 3.606L30.9355 0.799998H53.5215C53.6135 1.628 53.6595 2.67067 53.6595 3.928C53.6595 5.15467 53.4295 6.872 52.9695 9.08C52.0188 9.38666 50.5775 9.54 48.6455 9.54L47.5875 5.4H40.6415ZM78.4869 11.196L77.0609 11.15L75.7269 5.63C73.9483 5.32333 72.6143 5.17 71.7249 5.17C69.9769 5.17 68.0143 5.52267 65.8369 6.228C65.1929 7.424 64.6869 8.95733 64.3189 10.828C63.9509 12.6987 63.7669 14.462 63.7669 16.118C63.7669 24.582 66.2049 28.814 71.0809 28.814C73.1663 28.814 74.8223 28.5073 76.0489 27.894L77.0149 22.282C78.9469 22.282 80.4189 22.3893 81.4309 22.604C81.9216 25.9467 82.1669 28.6607 82.1669 30.746C81.4309 31.298 79.9436 31.9113 77.7049 32.586C75.4969 33.2607 73.3196 33.598 71.1729 33.598C62.0343 33.598 57.4649 27.9553 57.4649 16.67C57.4649 11.3033 58.5689 7.22466 60.7769 4.434C63.0156 1.64333 66.5729 0.247999 71.4489 0.247999C73.8716 0.247999 76.0183 0.600666 77.8889 1.306C79.5449 1.91933 80.9556 2.594 82.1209 3.33C82.1209 5.41533 81.8909 7.93 81.4309 10.874C80.5723 11.0887 79.5909 11.196 78.4869 11.196ZM95.1767 5.4C95.1767 8.896 95.146 11.9013 95.0847 14.416H99.7767L100.237 11.242C101.801 11.242 103.319 11.6253 104.791 12.392V21.592L101.755 21.73C101.019 20.626 100.589 19.66 100.467 18.832H95.0387C94.9773 23.1253 94.9467 26.3607 94.9467 28.538H102.813L103.825 24.536C105.726 24.536 107.167 24.628 108.149 24.812C108.609 26.56 108.839 28.1547 108.839 29.596C108.839 31.0067 108.793 32.1413 108.701 33H85.8847L85.4707 30.47C87.464 29.7033 88.752 29.2587 89.3347 29.136C89.304 27.3267 89.2733 24.7813 89.2427 21.5C89.12 14.14 89.0127 8.574 88.9207 4.802L85.1027 3.606L85.4707 0.799998H108.057C108.149 1.628 108.195 2.67067 108.195 3.928C108.195 5.15467 107.965 6.872 107.505 9.08C106.554 9.38666 105.113 9.54 103.181 9.54L102.123 5.4H95.1767ZM125.938 0.799998C125.907 0.799998 125.907 0.830665 125.938 0.891999C125.999 0.953332 126.061 1.09133 126.122 1.306C126.214 1.49 126.306 1.72 126.398 1.996C126.582 2.48666 126.705 3.29933 126.766 4.434C125.202 4.67933 124.175 4.83267 123.684 4.894L123.454 28.584L126.628 28.998C126.628 30.2553 126.275 31.5893 125.57 33H114.392L113.978 30.47C115.695 29.7647 116.983 29.32 117.842 29.136C117.811 27.3267 117.765 24.7813 117.704 21.5C117.612 14.14 117.52 8.574 117.428 4.802L113.61 3.606L113.978 0.799998H125.938ZM143.091 0.799998C146.985 0.799998 149.883 1.47466 151.785 2.824C153.686 4.17333 154.637 6.62666 154.637 10.184C154.637 13.1587 153.717 15.6427 151.877 17.636C150.037 19.5987 147.093 20.58 143.045 20.58C141.726 20.58 140.683 20.5647 139.917 20.534L139.825 28.63L143.183 28.998C143.183 30.3473 142.83 31.6813 142.125 33H130.763L130.349 30.47C131.943 29.826 133.231 29.3813 134.213 29.136C134.213 29.044 134.075 20.9327 133.799 4.802C133.308 4.67933 132.035 4.28066 129.981 3.606L130.349 0.799998H143.091ZM142.079 16.21C144.133 16.1793 145.728 15.612 146.863 14.508C147.997 13.404 148.565 11.978 148.565 10.23C148.565 8.482 148.059 7.24 147.047 6.504C146.065 5.73733 144.517 5.354 142.401 5.354C141.573 5.354 140.791 5.36933 140.055 5.4C139.993 10.2453 139.963 13.864 139.963 16.256L142.079 16.21ZM166.468 5.4C166.468 8.896 166.437 11.9013 166.376 14.416H171.068L171.528 11.242C173.092 11.242 174.61 11.6253 176.082 12.392V21.592L173.046 21.73C172.31 20.626 171.88 19.66 171.758 18.832H166.33C166.268 23.1253 166.238 26.3607 166.238 28.538H174.104L175.116 24.536C177.017 24.536 178.458 24.628 179.44 24.812C179.9 26.56 180.13 28.1547 180.13 29.596C180.13 31.0067 180.084 32.1413 179.992 33H157.176L156.762 30.47C158.755 29.7033 160.043 29.2587 160.626 29.136C160.595 27.3267 160.564 24.7813 160.534 21.5C160.411 14.14 160.304 8.574 160.212 4.802L156.394 3.606L156.762 0.799998H179.348C179.44 1.628 179.486 2.67067 179.486 3.928C179.486 5.15467 179.256 6.872 178.796 9.08C177.845 9.38666 176.404 9.54 174.472 9.54L173.414 5.4H166.468ZM195.297 0.799998C200.664 0.799998 204.221 1.56666 205.969 3.1C207.564 4.48 208.361 6.61133 208.361 9.494C208.361 13.9713 206.03 17.0227 201.369 18.648L207.993 28.63L211.949 29.044C211.949 30.3627 211.596 31.6813 210.891 33H204.221L195.205 19.246H193.733L193.595 28.63L196.953 28.998C196.953 30.2553 196.6 31.5893 195.895 33H184.533L184.119 30.47C185.959 29.734 187.247 29.2893 187.983 29.136C187.922 25.364 187.845 20.81 187.753 15.474C187.661 10.138 187.6 6.56533 187.569 4.756L183.751 3.606C183.782 2.90066 183.92 1.96533 184.165 0.799998H195.297ZM198.931 5.722C197.98 5.50733 196.708 5.4 195.113 5.4H193.825C193.764 9.632 193.733 12.806 193.733 14.922L195.987 14.876C197.796 14.8453 199.222 14.4773 200.265 13.772C201.338 13.036 201.875 11.6253 201.875 9.54C201.875 7.45467 200.894 6.182 198.931 5.722ZM231.327 20.948L231.281 28.584L234.455 28.998C234.455 30.2553 234.102 31.5893 233.397 33H222.219L221.805 30.47C223.921 29.642 225.209 29.1973 225.669 29.136C225.669 27.3267 225.638 24.6127 225.577 20.994L216.883 4.848L212.835 3.606L213.203 0.799998H225.163C225.715 1.812 225.991 3.02333 225.991 4.434C225.285 4.55666 224.381 4.69466 223.277 4.848L228.199 15.934H228.613L233.857 4.802C232.814 4.58733 231.541 4.18867 230.039 3.606L230.361 0.799998H242.367C242.888 1.56667 243.164 2.778 243.195 4.434C241.999 4.67933 240.803 4.848 239.607 4.94L231.327 20.948Z" fill="white"/>
</svg>
